<svg id="Capa_1" data-name="Capa 1" xmlns="http://www.w3.org/2000/svg" viewBox="0 0 1200 1200"><defs><style>.cls-1{fill:#3a506b;}.cls-2{fill:#5ebebc;}.cls-12,.cls-13,.cls-3,.cls-4,.cls-5,.cls-6,.cls-7,.cls-8,.cls-9{fill:none;}.cls-3,.cls-4,.cls-7{stroke:#5ebebc;}.cls-12,.cls-13,.cls-3,.cls-4,.cls-5,.cls-6,.cls-8{stroke-linecap:round;stroke-linejoin:round;}.cls-3,.cls-7,.cls-8,.cls-9{stroke-width:6.81px;}.cls-4,.cls-5,.cls-6{stroke-width:8.17px;}.cls-5,.cls-8{stroke:#49b69c;}.cls-12,.cls-13,.cls-6,.cls-9{stroke:#3a506b;}.cls-7,.cls-9{stroke-miterlimit:10;}.cls-10{fill:#13162a;}.cls-11{fill:#49b69c;}.cls-12{stroke-width:10.89px;}.cls-13{stroke-width:12.25px;}.cls-14{fill:#1d1e1c;}</style></defs><title>Smart Logo Blanco</title><path class="cls-1" d="M89.71,1018.88a59,59,0,0,0-1,10.08c0,4.18,1,7.14,2.7,8.86a11.63,11.63,0,0,0,8.61,3.44c4.42,0,8.11-1,11.31-4.18,3.44-3.44,5.16-7.87,6.64-15.25a71.16,71.16,0,0,0,1.22-13c0-6.88-3.93-10.82-11.55-14.26l-17-8.11C77.17,980,71.76,970,71.76,957.91A100.25,100.25,0,0,1,74,937c2.45-12.3,6.88-24.34,14.75-32.21,8.11-8.11,17.7-13,34.91-13,16.47,0,25.57,3.93,32.7,11.06,5.16,5.17,7.87,13.77,7.87,22.62a98.61,98.61,0,0,1-1.48,17.71H129.79A53.43,53.43,0,0,0,131,932.34c0-4.18-.74-6.89-2.46-8.61a9.69,9.69,0,0,0-7.13-2.7,12.26,12.26,0,0,0-9.35,3.68c-3,3-4.67,8.61-5.4,12.3a55.92,55.92,0,0,0-1.23,10.82c0,5.65,3,9.59,8.85,12.29l14,6.64c18.44,8.6,24.84,17,24.84,32a118.31,118.31,0,0,1-2.22,23.36c-3.93,19.67-8.11,28.27-15.49,35.65-8.85,8.85-19.42,13-38.35,13-16.23,0-26.07-3.93-33.2-11.06-5.65-5.66-8.85-14-8.85-23.11a102.39,102.39,0,0,1,1.72-17.71Z"/><path class="cls-1" d="M196.17,893.74h29l13.28,84.58,47.45-84.58h29l-34.91,175H247.06L265.5,976.6l-30.24,59.74h-17l-5.66-59.74-18.44,92.19H161.26Z"/><path class="cls-1" d="M379.1,1068.79l.24-28.27H341l-11.31,28.27H294.27l77.7-175h32.45l7.87,175Zm0-126.37L352.79,1011h26.06Z"/><path class="cls-1" d="M461.46,893.74h46.47c27.54,0,38.6,14,38.6,32.94a109,109,0,0,1-2.21,20.41c-6.15,30.24-13.77,38.85-28.27,46.47l9.34,75.23H492.44l-7.37-69.09h-11.8l-13.77,69.09H426.55Zm31.72,77.44c12.54,0,16-13,18.19-24.09A72.85,72.85,0,0,0,512.85,935c0-7.13-2.21-11.8-11.31-11.8h-13l-9.59,47.94Z"/><path class="cls-1" d="M588.09,923.24h-28l5.9-29.5h89l-5.9,29.5H621l-29,145.55H559.08Z"/><path class="cls-2" d="M689.85,893.74H710l-31.47,157.11h43.77l-3.45,17.94H654.94Z"/><path class="cls-2" d="M773.69,893.74h20.16l-34.91,175H738.78Z"/><path class="cls-2" d="M823.36,893.74h17.46l17.7,121,23.11-121h20.16l-34.91,175H850.16L832.7,948.07l-24.09,120.72H788.45Z"/><path class="cls-2" d="M931.29,893.74h20.17l-17,84.82,55.32-84.82h22.13L964.24,966l17.7,102.77H961.78l-14-80.64-21.64,31.72-9.59,48.92H896.38Z"/><path class="cls-2" d="M1031.86,893.74h21.39l-5.17,26.55-24.83,17Z"/><path class="cls-2" d="M1069.72,1022.82a66.5,66.5,0,0,0-1.48,14.26c0,4.42.74,7.87,3,10.57,2.45,2.95,6.63,5.16,12.29,5.16a20.76,20.76,0,0,0,15-5.9c5.65-5.41,7.86-11.06,10.32-23.85,1.48-7.62,2-11.8,2-17.45,0-6.89-3.44-12.05-11.8-16L1083,982c-12.3-5.9-17.22-13.77-17.22-26.8a86.28,86.28,0,0,1,2-17.45c3.45-17,7.87-27.29,15.74-34.92,7.13-7.13,16.47-11.06,28.76-11.06,13.53,0,21.15,3.69,26.56,10.33,3.93,4.91,6.15,10.81,6.15,19.67a86.35,86.35,0,0,1-2,17.7h-19.92a71.72,71.72,0,0,0,1.48-14.51c0-4.42-.74-7.62-2.71-10.32a13,13,0,0,0-10.81-4.92,19.2,19.2,0,0,0-13.53,5.65c-5.16,4.67-7.62,11.31-9.83,22.38a67,67,0,0,0-1.23,12.29c0,8.61,3.93,12.54,10.08,15.49l14.51,6.89c15.49,7.37,20.65,15.24,20.65,28a119.36,119.36,0,0,1-2.7,22.87c-3.94,20.41-8.12,29.26-16,36.63-7.37,7.13-17,10.82-31,10.82s-21.63-3.44-27.53-10.08c-4.43-4.92-6.64-11.31-6.64-20.16a86.18,86.18,0,0,1,2-17.7Z"/><circle class="cls-3" cx="806.95" cy="316.87" r="32.96" transform="translate(12.29 663.41) rotate(-45)"/><path class="cls-4" d="M357.76,693.18S507,441.8,774.15,325.76"/><path class="cls-5" d="M330.72,677.84C346,648.91,522.63,317.17,850,233"/><circle class="cls-6" cx="771.09" cy="77.41" r="32.96" transform="translate(171.11 567.91) rotate(-45)"/><path class="cls-4" d="M319.83,658.79s68.06-255.87,362-445"/><circle class="cls-7" cx="712.54" cy="197.05" r="32.96" transform="translate(20.89 458.11) rotate(-36.14)"/><circle class="cls-8" cx="883.22" cy="219.71" r="32.96" transform="translate(464.47 1027.79) rotate(-76.58)"/><circle class="cls-9" cx="972.2" cy="387.78" r="32.96" transform="translate(395.92 1261.53) rotate(-78.34)"/><path class="cls-10" d="M342.39,748.83c-8.79-6-16.46-11.53-23.1-16.55Q330.45,741,342.39,748.83Z"/><path class="cls-1" d="M723.94,476.38c0,112.56-91.25,203.81-203.82,203.81A202.91,202.91,0,0,1,423,655.59c-18,17.82-32.55,34.09-44.07,47.92a266.16,266.16,0,0,0,141.22,40.31c147.71,0,267.44-119.74,267.44-267.44a268.45,268.45,0,0,0-3.2-41.45q-31.92,11.46-61.18,23.93C723.67,464.63,723.94,470.47,723.94,476.38Z"/><path class="cls-1" d="M316.31,476.38c0-109.49,86.34-198.81,194.65-203.6,21-24,40.33-43.83,56.75-59.62a269.3,269.3,0,0,0-47.59-4.22c-147.7,0-267.44,119.74-267.44,267.44A266.17,266.17,0,0,0,299.1,627q15.16-39.16,31.77-74.84A203.14,203.14,0,0,1,316.31,476.38Z"/><path class="cls-2" d="M636.22,543.41a134.09,134.09,0,0,1-156.36,60.86C458,622.21,439.15,639.53,423,655.59a202.91,202.91,0,0,0,97.15,24.6c112.57,0,203.82-91.25,203.82-203.81,0-5.91-.27-11.75-.76-17.52q-37,15.69-69.82,32.57A133.55,133.55,0,0,1,636.22,543.41Z"/><path class="cls-2" d="M316.31,476.38a203.14,203.14,0,0,0,14.56,75.76,1221.68,1221.68,0,0,1,61.26-115.72c12.75-21.23,25.61-41.15,38.39-59.79A1112.94,1112.94,0,0,1,511,272.78C402.65,277.57,316.31,366.89,316.31,476.38Z"/><path class="cls-11" d="M636.22,543.41a133.55,133.55,0,0,0,17.14-52C582,527.88,524.74,567.37,479.86,604.27A134.09,134.09,0,0,0,636.22,543.41Z"/><path class="cls-11" d="M344.43,750.23l0,0-2.06-1.36C343.07,749.3,343.73,749.76,344.43,750.23Z"/><path class="cls-12" d="M378.9,703.51s164.43-204,461-287c0,0,65.18-17.68,96.49-24.48"/><path class="cls-13" d="M301.46,633.61S408.61,340.73,625.54,167.67c0,0,61.77-43.76,116.21-71"/><path class="cls-10" d="M841.11,420.61c-19.15,5.85-39.3,9.92-57.17,16.33,2.1,13.51,3.62,25.34,3.62,39.44,0,147.7-119.73,267.44-267.44,267.44A267.41,267.41,0,0,1,252.68,476.38c0-147.7,119.74-267.44,267.44-267.44a269.3,269.3,0,0,1,47.59,4.22c28.41-27.3,45.27-43.38,50.19-47.06-31.7-10.31-62.64-15-97.78-15-179.65,0-325.28,145.64-325.28,325.29a325.66,325.66,0,0,0,124.45,255.9c6.64,5,14.31,10.54,23.1,16.55l2.06,1.36a323.79,323.79,0,0,0,175.67,51.47c179.65,0,325.29-145.63,325.29-325.28C845.41,455.92,844.72,440,841.11,420.61Z"/><path class="cls-14" d="M262,1103h5.16v52H262Zm3.76,27h16.63a10.24,10.24,0,0,0,5.37-1.4,9.34,9.34,0,0,0,3.59-3.9,12.6,12.6,0,0,0,1.28-5.79,12.79,12.79,0,0,0-1.28-5.85,9.33,9.33,0,0,0-3.59-3.92,10.23,10.23,0,0,0-5.37-1.39H265.73V1103h16.38a16.56,16.56,0,0,1,8.2,2,13.77,13.77,0,0,1,5.49,5.6,18.83,18.83,0,0,1,0,16.69,13.91,13.91,0,0,1-5.49,5.58,16.56,16.56,0,0,1-8.2,2H265.73Z"/><path class="cls-14" d="M313.7,1155.56l-3.65-2a13.12,13.12,0,0,1-5.56-5.69,19.48,19.48,0,0,1-1.91-9v-4.19a21.83,21.83,0,0,1,1.84-9.4,13.22,13.22,0,0,1,5.34-5.94,16.55,16.55,0,0,1,8.45-2,15,15,0,0,1,7.94,2,12.87,12.87,0,0,1,5,5.85,22.49,22.49,0,0,1,1.73,9.25v4.26H306.08v-4.65h22v-.36q0-5.52-2.6-8.53a9.09,9.09,0,0,0-7.31-3q-5.19,0-8,3.19t-2.82,9v4.72q0,5.58,3,8.64c2,2,4.83,3.06,8.48,3.06a13,13,0,0,0,5.1-1.07,14.21,14.21,0,0,0,4.49-3L332,1150a19.88,19.88,0,0,1-6.16,4.1,17.81,17.81,0,0,1-6.94,1.45Z"/><path class="cls-14" d="M342.93,1117.89h5.15V1155h-5.15Zm24.68,14.63c0-3.29-.86-5.85-2.59-7.66a9.65,9.65,0,0,0-7.32-2.72,9.86,9.86,0,0,0-7.1,2.42,9,9,0,0,0-2.52,6.85l-.75-7.16a12,12,0,0,1,5.22-5.27,16.62,16.62,0,0,1,7.55-1.63q6,0,9.35,4t3.31,11.18V1155h-5.15Z"/><path class="cls-14" d="M393.62,1155.56l-2.83-.59a24.78,24.78,0,0,1-5.28-1.74,18.9,18.9,0,0,1-4.34-2.76l3-3.61a27.12,27.12,0,0,0,6.29,3.17,19,19,0,0,0,6.19,1.12c3.55,0,6.3-.6,8.25-1.82a5.76,5.76,0,0,0,2.91-5.15,4.56,4.56,0,0,0-1.41-3.65,7.68,7.68,0,0,0-3.56-1.65,53.31,53.31,0,0,0-6-.71l-.73-.05c-.25,0-.49,0-.73-.06a1.42,1.42,0,0,1-.29,0h-.28a34.44,34.44,0,0,1-6.16-1.08,8.32,8.32,0,0,1-4.13-2.68,8.58,8.58,0,0,1-1.66-5.69,10.47,10.47,0,0,1,1.73-6.08,10.87,10.87,0,0,1,5.08-3.83,21.89,21.89,0,0,1,8-1.32,25,25,0,0,1,4.87.48,26,26,0,0,1,4.67,1.4,21.29,21.29,0,0,1,4.09,2.2l-3,3.54a24.67,24.67,0,0,0-5.5-2.38,19.14,19.14,0,0,0-5.37-.84q-4.68,0-7.26,1.75a5.64,5.64,0,0,0-2.58,4.94,4,4,0,0,0,1.4,3.31,7.65,7.65,0,0,0,3.52,1.45,55.94,55.94,0,0,0,5.85.57l.3,0h.52a.85.85,0,0,1,.22,0,31.78,31.78,0,0,1,6.63,1,9,9,0,0,1,4.6,3q1.86,2.22,1.86,6.41a10.11,10.11,0,0,1-1.86,6.15,11.43,11.43,0,0,1-5.44,3.88,24.45,24.45,0,0,1-8.62,1.35Z"/><path class="cls-14" d="M423.63,1152.55q-3.58-3-3.58-8.48c0-3.5,1.09-6.22,3.27-8.14s5.27-2.88,9.25-2.88h12.34l.5,4.8h-12.8a8.42,8.42,0,0,0-5.53,1.62,6.23,6.23,0,0,0,.5,9.48,11.84,11.84,0,0,0,6.92,1.74,22.34,22.34,0,0,0,7.44-1c1.77-.64,2.65-1.55,2.65-2.72l.75,4.87a10.1,10.1,0,0,1-2.84,2,16.23,16.23,0,0,1-4,1.27,26.08,26.08,0,0,1-4.81.43Q427.21,1155.56,423.63,1152.55Zm21-21.07a9.61,9.61,0,0,0-2.41-7,9.11,9.11,0,0,0-6.85-2.49,16.14,16.14,0,0,0-5.19.86,14.62,14.62,0,0,0-4.51,2.43l-3.75-2.57a13.81,13.81,0,0,1,5.56-4,20.11,20.11,0,0,1,7.67-1.41A17.63,17.63,0,0,1,443,1119a11.26,11.26,0,0,1,5,4.72,15.1,15.1,0,0,1,1.72,7.46V1155h-5.15Z"/><path class="cls-14" d="M460.83,1117.89H466V1155h-5.15Zm23.25,14.63c0-3.29-.78-5.85-2.34-7.66a8.33,8.33,0,0,0-6.67-2.72,8.94,8.94,0,0,0-6.71,2.45,9.57,9.57,0,0,0-2.38,6.93l-.75-7.16a12,12,0,0,1,4.87-5.37,14.43,14.43,0,0,1,7-1.64,11.8,11.8,0,0,1,6.56,1.77,10.89,10.89,0,0,1,4.15,5.17,21.31,21.31,0,0,1,1.41,8.19V1155h-5.15Zm23.26,0c0-3.29-.79-5.85-2.37-7.66a8.34,8.34,0,0,0-6.65-2.72,8.58,8.58,0,0,0-6.71,2.65c-1.58,1.76-2.38,4.25-2.38,7.44l-2.18-5.37a15.9,15.9,0,0,1,5-7.06,12.18,12.18,0,0,1,7.65-2.45,13,13,0,0,1,6.92,1.77,11.21,11.21,0,0,1,4.39,5.17,20.17,20.17,0,0,1,1.5,8.19V1155h-5.15Z"/><path class="cls-14" d="M529.55,1153.66a12.53,12.53,0,0,1-5.24-5.53,19.49,19.49,0,0,1-1.81-8.74v-6.05a19.13,19.13,0,0,1,1.81-8.64,12.43,12.43,0,0,1,5.24-5.47,19.11,19.11,0,0,1,16.53,0,12.43,12.43,0,0,1,5.24,5.47,19.14,19.14,0,0,1,1.8,8.64v6.15a19.22,19.22,0,0,1-1.8,8.68,12.59,12.59,0,0,1-5.24,5.49,18.93,18.93,0,0,1-16.53,0Zm15.76-5.85q2.66-3,2.66-8.32v-6.15c0-3.55-.89-6.31-2.66-8.26a9.65,9.65,0,0,0-7.53-2.94,9.56,9.56,0,0,0-7.48,2.94c-1.76,2-2.64,4.71-2.64,8.26v6.15q0,5.37,2.64,8.32a9.53,9.53,0,0,0,7.48,3A9.63,9.63,0,0,0,545.31,1147.81Z"/><path class="cls-14" d="M573.26,1155.56l-2.82-.59a24.59,24.59,0,0,1-5.28-1.74,18.9,18.9,0,0,1-4.34-2.76l3-3.61a27.12,27.12,0,0,0,6.29,3.17,18.93,18.93,0,0,0,6.19,1.12c3.55,0,6.3-.6,8.25-1.82a5.76,5.76,0,0,0,2.91-5.15,4.56,4.56,0,0,0-1.41-3.65,7.68,7.68,0,0,0-3.56-1.65,53.31,53.31,0,0,0-6-.71l-.73-.05c-.25,0-.49,0-.73-.06a1.42,1.42,0,0,1-.29,0h-.28a34.44,34.44,0,0,1-6.16-1.08,8.32,8.32,0,0,1-4.13-2.68,8.58,8.58,0,0,1-1.66-5.69,10.47,10.47,0,0,1,1.73-6.08,10.87,10.87,0,0,1,5.08-3.83,21.89,21.89,0,0,1,8-1.32,25,25,0,0,1,4.87.48,26.23,26.23,0,0,1,4.67,1.4,21.29,21.29,0,0,1,4.09,2.2l-3,3.54a24.55,24.55,0,0,0-5.51-2.38,19,19,0,0,0-5.36-.84q-4.7,0-7.26,1.75a5.64,5.64,0,0,0-2.58,4.94,4,4,0,0,0,1.4,3.31,7.65,7.65,0,0,0,3.52,1.45,55.94,55.94,0,0,0,5.85.57l.3,0h.52a.93.93,0,0,1,.22,0,31.78,31.78,0,0,1,6.63,1,9,9,0,0,1,4.6,3q1.86,2.22,1.86,6.41a10.11,10.11,0,0,1-1.86,6.15,11.43,11.43,0,0,1-5.44,3.88,24.45,24.45,0,0,1-8.62,1.35Z"/><path class="cls-14" d="M626,1153.78a11.18,11.18,0,0,1-4.41-5.13,19.76,19.76,0,0,1-1.5-8.08v-8.09a20.53,20.53,0,0,1,1.47-8.19,11.11,11.11,0,0,1,4.27-5.17,12.41,12.41,0,0,1,6.75-1.77,16.51,16.51,0,0,1,7.45,1.59,11.77,11.77,0,0,1,5.14,5.21l-.75,7.15a9.91,9.91,0,0,0-1.13-4.61,9,9,0,0,0-3.27-3.54,10.4,10.4,0,0,0-12.24,1.44q-2.53,2.82-2.54,7.93v8q0,5,2.54,7.78a9.3,9.3,0,0,0,7.19,2.77,9,9,0,0,0,5-1.4,9.33,9.33,0,0,0,3.29-3.63,10,10,0,0,0,1.15-4.67l.5,7.77a9,9,0,0,1-4.44,4.88,17.1,17.1,0,0,1-7.55,1.49A12.94,12.94,0,0,1,626,1153.78ZM644.42,1103h5.15v52h-5.15Z"/><path class="cls-14" d="M661.73,1103h5.15v5.15h-5.15Zm0,14.88h5.15V1155h-5.15Z"/><path class="cls-14" d="M676.18,1117.89h18.57v4.43H676.18Zm3.94-5.05q0-4.93,2.13-7.38c1.41-1.64,3.56-2.45,6.42-2.45h6.08v4.79h-5.22a4,4,0,0,0-3.2,1.23,5.62,5.62,0,0,0-1.06,3.74V1155h-5.15Z"/><path class="cls-14" d="M711.24,1155.56l-3.65-2a13.06,13.06,0,0,1-5.56-5.69,19.48,19.48,0,0,1-1.91-9v-4.19a21.83,21.83,0,0,1,1.84-9.4,13.16,13.16,0,0,1,5.34-5.94,16.55,16.55,0,0,1,8.45-2,15.05,15.05,0,0,1,7.94,2,12.87,12.87,0,0,1,5,5.85,22.49,22.49,0,0,1,1.73,9.25v4.26H703.62v-4.65h22v-.36q0-5.52-2.6-8.53a9.09,9.09,0,0,0-7.31-3q-5.19,0-8,3.19t-2.82,9v4.72q0,5.58,3,8.64c2,2,4.83,3.06,8.48,3.06a13,13,0,0,0,5.1-1.07,14.21,14.21,0,0,0,4.49-3l3.51,3.36a19.88,19.88,0,0,1-6.16,4.1,17.81,17.81,0,0,1-6.94,1.45Z"/><path class="cls-14" d="M740.47,1117.89h5.15V1155h-5.15Zm19,4.86a12.27,12.27,0,0,0-4-.61,10,10,0,0,0-7.23,2.49,9.15,9.15,0,0,0-2.57,6.89l-.75-7.16a14.41,14.41,0,0,1,5.35-5.17,14.57,14.57,0,0,1,7.24-1.84,13.66,13.66,0,0,1,4.6.73,10.16,10.16,0,0,1,3.59,2.17l-3.33,4.29A7.27,7.27,0,0,0,759.44,1122.75Z"/><path class="cls-14" d="M781.07,1155.56l-3.65-2a13.06,13.06,0,0,1-5.56-5.69,19.48,19.48,0,0,1-1.92-9v-4.19a22,22,0,0,1,1.84-9.4,13.24,13.24,0,0,1,5.35-5.94,16.51,16.51,0,0,1,8.44-2,15.09,15.09,0,0,1,7.95,2,12.8,12.8,0,0,1,5,5.85,22.33,22.33,0,0,1,1.74,9.25v4.26H773.45v-4.65h22v-.36q0-5.52-2.59-8.53a9.11,9.11,0,0,0-7.32-3c-3.45,0-6.13,1.06-8,3.19s-2.82,5.12-2.82,9v4.72q0,5.58,3,8.64t8.48,3.06a13,13,0,0,0,5.1-1.07,14.32,14.32,0,0,0,4.49-3l3.5,3.36a19.72,19.72,0,0,1-6.15,4.1,17.81,17.81,0,0,1-6.94,1.45Z"/><path class="cls-14" d="M810.29,1117.89h5.15V1155h-5.15ZM835,1132.52c0-3.29-.87-5.85-2.6-7.66a9.63,9.63,0,0,0-7.31-2.72,9.86,9.86,0,0,0-7.1,2.42,9,9,0,0,0-2.53,6.85l-.75-7.16a12.1,12.1,0,0,1,5.23-5.27,16.57,16.57,0,0,1,7.54-1.63q6,0,9.36,4t3.31,11.18V1155H835Z"/><path class="cls-14" d="M848.36,1117.89H865.1v4.43H848.36Zm5.92,34.82q-2.1-2.49-2.1-7.35v-38.28h5.15v38.35a5.55,5.55,0,0,0,1.08,3.68,3.87,3.87,0,0,0,3.18,1.29h3.51v4.8h-4.22Q856.37,1155.2,854.28,1152.71Z"/><path class="cls-14" d="M885.17,1155.56l-3.65-2a13.08,13.08,0,0,1-5.57-5.69,19.61,19.61,0,0,1-1.91-9v-4.19a21.83,21.83,0,0,1,1.84-9.4,13.18,13.18,0,0,1,5.35-5.94,16.51,16.51,0,0,1,8.44-2,15,15,0,0,1,7.94,2,12.82,12.82,0,0,1,5,5.85,22.33,22.33,0,0,1,1.74,9.25v4.26H877.55v-4.65h22v-.36q0-5.52-2.59-8.53a9.11,9.11,0,0,0-7.32-3c-3.45,0-6.13,1.06-8,3.19s-2.83,5.12-2.83,9v4.72c0,3.72,1,6.6,3,8.64s4.83,3.06,8.48,3.06a13,13,0,0,0,5.09-1.07,14.1,14.1,0,0,0,4.49-3l3.51,3.36a19.72,19.72,0,0,1-6.15,4.1,17.85,17.85,0,0,1-6.94,1.45Z"/></svg>