<svg id="Capa_1" data-name="Capa 1" xmlns="http://www.w3.org/2000/svg" viewBox="0 0 1200 1200"><defs><style>.cls-1{fill:#13162a;}.cls-2{fill:#3a506b;}.cls-3{fill:#5ebebc;}</style></defs><title>Mesa de trabajo 2</title><circle class="cls-1" cx="600" cy="600" r="555.59"/><path class="cls-2" d="M361.44,741.85a223,223,0,0,0-3.71,38c0,15.76,3.71,26.89,10.2,33.37,7.41,7.43,17.61,13,32.45,13,16.68,0,30.59-3.7,42.64-15.76,13-13,19.47-29.66,25-57.48a267.66,267.66,0,0,0,4.63-49.14c0-26-14.83-40.79-43.57-53.77l-64-30.6c-51-24.11-71.39-62.11-71.39-107.54,0-27.82,2.78-51,8.35-78.82,9.26-46.35,25.95-91.78,55.62-121.45,30.59-30.6,66.75-49.14,131.65-49.14,62.12,0,96.43,14.84,123.31,41.73,19.47,19.46,29.67,51.91,29.67,85.3a372,372,0,0,1-5.56,66.75H512.56c3.71-18.54,4.64-30.6,4.64-40.8,0-15.76-2.78-25.95-9.28-32.45-4.63-4.63-13-10.2-26.88-10.2s-25,3.72-35.24,13.91c-11.12,11.12-17.61,32.45-20.39,46.35s-4.63,27.82-4.63,40.8c0,21.33,11.12,36.16,33.37,46.35l52.84,25c69.54,32.45,93.65,64,93.65,120.53a444.89,444.89,0,0,1-8.35,88.08c-14.83,74.17-30.59,106.62-58.41,134.43-33.37,33.38-73.24,49.14-144.63,49.14-61.19,0-98.27-14.83-125.16-41.72-21.32-21.33-33.38-52.85-33.38-87.15,0-19.48,1.86-39.87,6.49-66.76Z"/><path class="cls-3" d="M789.22,269.94H895.13L740.45,824.32l228.84,2.17L941.62,930.06H605.86Z"/></svg>