<svg id="Capa_1" data-name="Capa 1" xmlns="http://www.w3.org/2000/svg" viewBox="0 0 118 18"><defs><style>.cls-1{fill:#3b516c;}.cls-2{fill:#5fbfbd;}</style></defs><title>Mesa de trabajo 1</title><path class="cls-1" d="M6,12.28a5,5,0,0,0-.1.89,1,1,0,0,0,.28.77,1.36,1.36,0,0,0,.9.3,1.7,1.7,0,0,0,1.17-.37A2.19,2.19,0,0,0,9,12.54,5.42,5.42,0,0,0,9.1,11.4c0-.6-.41-.94-1.2-1.24L6.14,9.45A2.62,2.62,0,0,1,4.17,7,7.57,7.57,0,0,1,4.4,5.14,5.25,5.25,0,0,1,5.93,2.32,5.11,5.11,0,0,1,9.56,1.19a4.85,4.85,0,0,1,3.39,1,2.56,2.56,0,0,1,.82,2,7.12,7.12,0,0,1-.16,1.54H10.19a3.59,3.59,0,0,0,.13-.94A.9.9,0,0,0,10.07,4a1.1,1.1,0,0,0-.74-.24,1.42,1.42,0,0,0-1,.32A2.06,2.06,0,0,0,7.8,5.14a3.94,3.94,0,0,0-.13.94c0,.49.3.84.92,1.07L10,7.73c1.92.75,2.58,1.48,2.58,2.79a8.61,8.61,0,0,1-.23,2,5.09,5.09,0,0,1-1.61,3.12,5.65,5.65,0,0,1-4,1.13,5.08,5.08,0,0,1-3.45-1,2.63,2.63,0,0,1-.91-2,8.08,8.08,0,0,1,.17-1.55Z"/><path class="cls-1" d="M17.08,1.36h3l1.37,7.38L26.4,1.36h3L25.79,16.64H22.37l1.91-8-3.14,5.22H19.38l-.59-5.22-1.91,8.05H13.46Z"/><path class="cls-1" d="M36.07,16.64l0-2.47h-4l-1.18,2.47H27.27L35.33,1.36H38.7l.82,15.28Zm0-11-2.73,6h2.71Z"/><path class="cls-1" d="M44.62,1.36h4.82c2.86,0,4,1.22,4,2.87A8.36,8.36,0,0,1,53.22,6c-.64,2.64-1.43,3.39-2.93,4.05l1,6.57H47.84l-.77-6H45.85l-1.43,6H41Zm3.29,6.76c1.3,0,1.66-1.14,1.89-2.1A5.2,5.2,0,0,0,50,5c0-.62-.23-1-1.17-1H47.43l-1,4.19Z"/><path class="cls-1" d="M57.76,3.93H54.85l.62-2.57h9.24l-.62,2.57H61.18l-3,12.71H54.75Z"/><path class="cls-2" d="M68.33,1.36h2.09L67.15,15.08h4.54l-.35,1.56H64.7Z"/><path class="cls-2" d="M77,1.36h2.09L75.5,16.64H73.4Z"/><path class="cls-2" d="M82.18,1.36H84l1.83,10.56,2.4-10.56h2.09L86.7,16.64H85L83.15,6.1l-2.5,10.54H78.56Z"/><path class="cls-2" d="M93.39,1.36h2.09l-1.76,7.4,5.74-7.4h2.3l-5,6.31,1.83,9H96.55l-1.45-7-2.25,2.77-1,4.27h-2.1Z"/><path class="cls-2" d="M103.82,1.36H106l-.53,2.32-2.58,1.48Z"/><path class="cls-2" d="M107.75,12.63a5.22,5.22,0,0,0-.15,1.24,1.25,1.25,0,0,0,.31.93,1.79,1.79,0,0,0,1.27.45,2.4,2.4,0,0,0,1.56-.52,3.1,3.1,0,0,0,1.07-2.08,5.83,5.83,0,0,0,.21-1.52c0-.61-.36-1.06-1.23-1.4l-1.66-.67a2.32,2.32,0,0,1-1.78-2.34,6.29,6.29,0,0,1,.2-1.52,5.21,5.21,0,0,1,1.63-3.05,4.47,4.47,0,0,1,3-1,3.55,3.55,0,0,1,2.76.9,2.33,2.33,0,0,1,.63,1.71,6.5,6.5,0,0,1-.2,1.55h-2.07a5.24,5.24,0,0,0,.16-1.27,1.27,1.27,0,0,0-.29-.9A1.46,1.46,0,0,0,112,2.75a2.16,2.16,0,0,0-1.4.5,3.05,3.05,0,0,0-1,2,4.75,4.75,0,0,0-.13,1.07,1.37,1.37,0,0,0,1.05,1.36l1.5.6c1.61.64,2.15,1.33,2.15,2.44a9.37,9.37,0,0,1-.28,2c-.41,1.78-.85,2.56-1.66,3.2a4.85,4.85,0,0,1-3.22.94,3.79,3.79,0,0,1-2.86-.88,2.22,2.22,0,0,1-.69-1.76,6,6,0,0,1,.21-1.54Z"/></svg>