<svg id="Capa_1" data-name="Capa 1" xmlns="http://www.w3.org/2000/svg" viewBox="0 0 118 18"><defs><style>.cls-1{fill:#3b516c;}.cls-2{fill:#5fbfbd;}.cls-3{fill:#1e1e1c;}</style></defs><title>Sin título-3</title><path class="cls-1" d="M35,8.78a3.06,3.06,0,0,0,0,.47.56.56,0,0,0,.12.41.54.54,0,0,0,.41.17.69.69,0,0,0,.53-.2,1.31,1.31,0,0,0,.31-.72,3,3,0,0,0,.06-.61c0-.32-.19-.51-.54-.67l-.8-.38a1.39,1.39,0,0,1-.89-1.34,4.59,4.59,0,0,1,.1-1A3,3,0,0,1,35,3.41a2.09,2.09,0,0,1,1.64-.61,2,2,0,0,1,1.53.52,1.52,1.52,0,0,1,.37,1.07,4.47,4.47,0,0,1-.07.83H36.91A2.85,2.85,0,0,0,37,4.71a.58.58,0,0,0-.11-.41.5.5,0,0,0-.34-.12.57.57,0,0,0-.44.17,1.3,1.3,0,0,0-.25.58,3,3,0,0,0-.06.51.6.6,0,0,0,.42.57l.66.32c.86.4,1.16.79,1.16,1.5a5.67,5.67,0,0,1-.1,1.1,2.92,2.92,0,0,1-.73,1.67,2.25,2.25,0,0,1-1.8.61,2,2,0,0,1-1.56-.52,1.5,1.5,0,0,1-.42-1.08,5.48,5.48,0,0,1,.08-.83Z"/><path class="cls-1" d="M40,2.9h1.36l.62,4,2.23-4h1.37L44,11.12H42.42l.86-4.33L41.86,9.6h-.8L40.8,6.79l-.87,4.33H38.38Z"/><path class="cls-1" d="M48.62,11.12V9.79h-1.8l-.53,1.33H44.63L48.29,2.9h1.52l.37,8.22Zm0-5.94L47.38,8.41h1.23Z"/><path class="cls-1" d="M52.49,2.9h2.18c1.3,0,1.82.65,1.82,1.54a5.14,5.14,0,0,1-.11,1c-.29,1.42-.64,1.83-1.32,2.19l.43,3.53H54L53.6,7.87h-.55l-.65,3.25H50.85ZM54,6.53c.59,0,.75-.61.86-1.13a3.89,3.89,0,0,0,.07-.56c0-.34-.11-.56-.54-.56h-.61l-.45,2.25Z"/><path class="cls-1" d="M58.44,4.28H57.12L57.4,2.9h4.18l-.27,1.38H60l-1.36,6.84H57.08Z"/><path class="cls-2" d="M63.22,2.9h1l-1.48,7.38h2.06l-.16.84h-3Z"/><path class="cls-2" d="M67.16,2.9h1l-1.64,8.22h-1Z"/><path class="cls-2" d="M69.49,2.9h.83l.83,5.68L72.23,2.9h1l-1.64,8.22h-.79l-.82-5.67L68.8,11.12h-1Z"/><path class="cls-2" d="M74.57,2.9h.94l-.79,4,2.6-4h1L76.11,6.29,77,11.12H76l-.66-3.79-1,1.49-.45,2.3h-.94Z"/><path class="cls-2" d="M79.29,2.9h1l-.25,1.24-1.16.8Z"/><path class="cls-2" d="M81.07,9a3,3,0,0,0-.07.67.78.78,0,0,0,.14.5.73.73,0,0,0,.58.24.93.93,0,0,0,.7-.28A1.8,1.8,0,0,0,82.91,9,3.78,3.78,0,0,0,83,8.15a.8.8,0,0,0-.55-.75L81.69,7a1.24,1.24,0,0,1-.8-1.26A4,4,0,0,1,81,5a3,3,0,0,1,.74-1.64,1.82,1.82,0,0,1,1.35-.52,1.48,1.48,0,0,1,1.25.49,1.41,1.41,0,0,1,.29.92,4,4,0,0,1-.1.83h-.93a3.17,3.17,0,0,0,.07-.68.76.76,0,0,0-.13-.48A.59.59,0,0,0,83,3.65a.89.89,0,0,0-.63.26,1.78,1.78,0,0,0-.47,1,3.79,3.79,0,0,0,0,.58.72.72,0,0,0,.47.73l.68.32c.73.35,1,.72,1,1.32A5.55,5.55,0,0,1,83.86,9a2.81,2.81,0,0,1-.76,1.72,1.91,1.91,0,0,1-1.45.51,1.57,1.57,0,0,1-1.3-.47,1.37,1.37,0,0,1-.31-1A4.82,4.82,0,0,1,80.13,9Z"/><path class="cls-3" d="M43.12,12.73h.24v2.44h-.24ZM43.29,14h.79a.45.45,0,0,0,.25-.07.42.42,0,0,0,.17-.18.6.6,0,0,0,.06-.27.61.61,0,0,0-.06-.28.42.42,0,0,0-.17-.18.55.55,0,0,0-.25-.07h-.79v-.22h.77a.8.8,0,0,1,.39.09.65.65,0,0,1,.26.26.87.87,0,0,1,.09.4.8.8,0,0,1-.09.39.65.65,0,0,1-.26.26.8.8,0,0,1-.39.09h-.77Z"/><path class="cls-3" d="M45.55,15.2l-.17-.09a.64.64,0,0,1-.27-.27.93.93,0,0,1-.09-.42v-.2a1,1,0,0,1,.09-.44.57.57,0,0,1,.25-.28.72.72,0,0,1,.4-.1.62.62,0,0,1,.37.1.58.58,0,0,1,.24.27,1.15,1.15,0,0,1,.08.44v.2H45.19v-.22h1v0a.6.6,0,0,0-.12-.4.4.4,0,0,0-.34-.14.49.49,0,0,0-.38.15.6.6,0,0,0-.13.42v.22a.58.58,0,0,0,.14.41.57.57,0,0,0,.4.14.52.52,0,0,0,.24-.05.6.6,0,0,0,.21-.14l.16.16a1.07,1.07,0,0,1-.28.19,1,1,0,0,1-.33.07Z"/><path class="cls-3" d="M46.92,13.43h.24v1.74h-.24Zm1.16.68a.48.48,0,0,0-.12-.35.44.44,0,0,0-.34-.13.5.5,0,0,0-.34.11.42.42,0,0,0-.12.32l0-.33a.53.53,0,0,1,.24-.25.8.8,0,0,1,.36-.08.53.53,0,0,1,.44.19.81.81,0,0,1,.15.52v1.06h-.24Z"/><path class="cls-3" d="M49.3,15.2l-.13,0-.25-.08a1.37,1.37,0,0,1-.2-.13l.14-.17a1.59,1.59,0,0,0,.29.15,1,1,0,0,0,.29.05.7.7,0,0,0,.39-.09.26.26,0,0,0,.14-.24.21.21,0,0,0-.07-.17.38.38,0,0,0-.17-.08l-.28,0h-.09a1.08,1.08,0,0,1-.29,0,.34.34,0,0,1-.27-.39.47.47,0,0,1,.08-.29.58.58,0,0,1,.24-.18,1,1,0,0,1,.37-.06l.23,0,.22.07a.85.85,0,0,1,.19.1l-.13.17a1,1,0,0,0-.26-.11.82.82,0,0,0-.26,0,.66.66,0,0,0-.34.08.27.27,0,0,0-.12.23.19.19,0,0,0,.07.16.39.39,0,0,0,.16.07l.28,0h0a1.37,1.37,0,0,1,.31,0,.43.43,0,0,1,.21.14.45.45,0,0,1,.09.3.46.46,0,0,1-.09.29.48.48,0,0,1-.25.18,1,1,0,0,1-.41.07Z"/><path class="cls-3" d="M50.71,15.06a.51.51,0,0,1-.17-.4.48.48,0,0,1,.16-.38.63.63,0,0,1,.43-.14h.58l0,.23h-.61a.37.37,0,0,0-.25.07.25.25,0,0,0-.1.22.27.27,0,0,0,.12.23.58.58,0,0,0,.32.08,1,1,0,0,0,.35-.05c.09,0,.13-.07.13-.12l0,.22a.45.45,0,0,1-.13.1l-.19.06-.22,0A.74.74,0,0,1,50.71,15.06Zm1-1a.43.43,0,0,0-.12-.33.41.41,0,0,0-.32-.12.67.67,0,0,0-.24,0,.72.72,0,0,0-.21.12l-.18-.13a.61.61,0,0,1,.26-.18.86.86,0,0,1,.36-.07.81.81,0,0,1,.37.08.47.47,0,0,1,.24.22.75.75,0,0,1,.08.35v1.12H51.7Z"/><path class="cls-3" d="M52.46,13.43h.24v1.74h-.24Zm1.09.68a.48.48,0,0,0-.11-.35.36.36,0,0,0-.31-.13.46.46,0,0,0-.32.11.49.49,0,0,0-.11.33l0-.34a.51.51,0,0,1,.23-.25.67.67,0,0,1,.33-.08.54.54,0,0,1,.5.33,1,1,0,0,1,.07.38v1.06h-.25Zm1.1,0a.52.52,0,0,0-.11-.35.39.39,0,0,0-.32-.13.4.4,0,0,0-.31.12.48.48,0,0,0-.11.35l-.11-.25a.71.71,0,0,1,.24-.33.56.56,0,0,1,.36-.12.57.57,0,0,1,.32.09.5.5,0,0,1,.21.24,1,1,0,0,1,.07.38v1.06h-.24Z"/><path class="cls-3" d="M55.69,15.11a.63.63,0,0,1-.25-.26,1,1,0,0,1-.08-.41v-.29a1,1,0,0,1,.08-.4.57.57,0,0,1,.25-.26.89.89,0,0,1,.78,0,.55.55,0,0,1,.24.26.84.84,0,0,1,.09.4v.29a.86.86,0,0,1-.09.41.6.6,0,0,1-.24.26.89.89,0,0,1-.78,0Zm.74-.28a.57.57,0,0,0,.13-.39v-.29a.56.56,0,0,0-.13-.38.51.51,0,0,0-.7,0,.52.52,0,0,0-.13.38v.29a.53.53,0,0,0,.13.39.51.51,0,0,0,.7,0Z"/><path class="cls-3" d="M57.74,15.2l-.13,0-.25-.08a1.37,1.37,0,0,1-.2-.13l.14-.17a1.59,1.59,0,0,0,.29.15,1.1,1.1,0,0,0,.29.05.7.7,0,0,0,.39-.09.26.26,0,0,0,.14-.24.21.21,0,0,0-.07-.17.4.4,0,0,0-.16-.08l-.28,0h-.1a1.08,1.08,0,0,1-.29,0,.35.35,0,0,1-.19-.12.36.36,0,0,1-.08-.27.55.55,0,0,1,.08-.29.58.58,0,0,1,.24-.18,1,1,0,0,1,.38-.06l.22,0,.22.07a1.24,1.24,0,0,1,.2.1l-.14.17a1,1,0,0,0-.26-.11.81.81,0,0,0-.25,0,.67.67,0,0,0-.35.08.27.27,0,0,0-.12.23.19.19,0,0,0,.07.16.39.39,0,0,0,.16.07l.28,0H58a1.37,1.37,0,0,1,.31,0,.46.46,0,0,1,.22.14.51.51,0,0,1,.08.3.52.52,0,0,1-.08.29.55.55,0,0,1-.26.18,1,1,0,0,1-.41.07Z"/><path class="cls-3" d="M60.22,15.11a.5.5,0,0,1-.21-.24,1,1,0,0,1-.07-.38v-.38a1,1,0,0,1,.07-.38.54.54,0,0,1,.2-.24.57.57,0,0,1,.32-.09.78.78,0,0,1,.35.08.56.56,0,0,1,.24.24l0,.34a.43.43,0,0,0-.06-.22.4.4,0,0,0-.15-.17.48.48,0,0,0-.24-.06.42.42,0,0,0-.33.13.53.53,0,0,0-.12.37v.38a.53.53,0,0,0,.12.37.42.42,0,0,0,.33.13.4.4,0,0,0,.24-.07.35.35,0,0,0,.15-.17.43.43,0,0,0,.06-.22l0,.37a.43.43,0,0,1-.21.23.87.87,0,0,1-.35.07A.58.58,0,0,1,60.22,15.11Zm.87-2.38h.24v2.44h-.24Z"/><path class="cls-3" d="M61.9,12.73h.24V13H61.9Zm0,.7h.24v1.74H61.9Z"/><path class="cls-3" d="M62.58,13.43h.87v.21h-.87Zm.18-.24a.58.58,0,0,1,.1-.35.42.42,0,0,1,.31-.11h.28V13h-.24a.18.18,0,0,0-.15.06.24.24,0,0,0-.05.18v2h-.25Z"/><path class="cls-3" d="M64.23,15.2l-.17-.09a.64.64,0,0,1-.27-.27.93.93,0,0,1-.09-.42v-.2a1,1,0,0,1,.09-.44A.57.57,0,0,1,64,13.5a.72.72,0,0,1,.4-.1.65.65,0,0,1,.61.37,1.15,1.15,0,0,1,.08.44v.2H63.87v-.22h1v0a.6.6,0,0,0-.12-.4.4.4,0,0,0-.34-.14.49.49,0,0,0-.38.15.6.6,0,0,0-.13.42v.22a.58.58,0,0,0,.14.41.56.56,0,0,0,.4.14.52.52,0,0,0,.24-.05.6.6,0,0,0,.21-.14l.16.16a1,1,0,0,1-.29.19.88.88,0,0,1-.32.07Z"/><path class="cls-3" d="M65.6,13.43h.24v1.74H65.6Zm.89.23a.54.54,0,0,0-.19,0,.51.51,0,0,0-.34.11.45.45,0,0,0-.12.33l0-.34a.64.64,0,0,1,.25-.24.67.67,0,0,1,.34-.09.46.46,0,0,1,.21,0,.32.32,0,0,1,.17.1l-.15.2A.25.25,0,0,0,66.49,13.66Z"/><path class="cls-3" d="M67.51,15.2l-.17-.09a.57.57,0,0,1-.26-.27.93.93,0,0,1-.09-.42v-.2a1,1,0,0,1,.08-.44.57.57,0,0,1,.25-.28.72.72,0,0,1,.4-.1.62.62,0,0,1,.37.1.58.58,0,0,1,.24.27,1.15,1.15,0,0,1,.08.44v.2H67.15v-.22h1v0a.6.6,0,0,0-.13-.4.4.4,0,0,0-.34-.14.49.49,0,0,0-.38.15.6.6,0,0,0-.13.42v.22a.58.58,0,0,0,.14.41.57.57,0,0,0,.4.14.52.52,0,0,0,.24-.05.6.6,0,0,0,.21-.14l.17.16a1.32,1.32,0,0,1-.29.19,1,1,0,0,1-.33.07Z"/><path class="cls-3" d="M68.88,13.43h.24v1.74h-.24Zm1.16.68a.48.48,0,0,0-.12-.35.44.44,0,0,0-.34-.13.5.5,0,0,0-.34.11.42.42,0,0,0-.12.32l0-.33a.53.53,0,0,1,.24-.25.83.83,0,0,1,.36-.08.53.53,0,0,1,.44.19.81.81,0,0,1,.15.52v1.06H70Z"/><path class="cls-3" d="M70.67,13.43h.79v.21h-.79ZM71,15.06a.48.48,0,0,1-.1-.34v-1.8h.24v1.8a.26.26,0,0,0,0,.17.18.18,0,0,0,.15.07h.17v.22h-.2A.37.37,0,0,1,71,15.06Z"/><path class="cls-3" d="M72.4,15.2l-.17-.09a.62.62,0,0,1-.26-.27.93.93,0,0,1-.09-.42v-.2a1.15,1.15,0,0,1,.08-.44.57.57,0,0,1,.25-.28.74.74,0,0,1,.4-.1.62.62,0,0,1,.37.1.53.53,0,0,1,.24.27,1.15,1.15,0,0,1,.08.44v.2H72v-.22h1v0a.55.55,0,0,0-.13-.4.4.4,0,0,0-.34-.14.49.49,0,0,0-.38.15.66.66,0,0,0-.13.42v.22a.58.58,0,0,0,.14.41.57.57,0,0,0,.4.14.52.52,0,0,0,.24-.05.6.6,0,0,0,.21-.14l.17.16a1.32,1.32,0,0,1-.29.19,1,1,0,0,1-.33.07Z"/></svg>