<svg id="Capa_1" data-name="Capa 1" xmlns="http://www.w3.org/2000/svg" viewBox="0 0 118 18"><defs><style>.cls-1{fill:#3b516c;}.cls-2{fill:#5fbfbd;}</style></defs><title>Smart Blanco</title><path class="cls-1" d="M24.47,11.55a4,4,0,0,0-.07.68.88.88,0,0,0,.18.6.82.82,0,0,0,.59.23,1,1,0,0,0,.76-.28,1.86,1.86,0,0,0,.45-1,4.74,4.74,0,0,0,.09-.89c0-.46-.27-.73-.79-1l-1.14-.55a2,2,0,0,1-1.29-1.93A6.69,6.69,0,0,1,23.4,6a4.28,4.28,0,0,1,1-2.18,3,3,0,0,1,2.36-.89A2.86,2.86,0,0,1,29,3.69a2.19,2.19,0,0,1,.53,1.53,6.9,6.9,0,0,1-.1,1.2H27.18a3.3,3.3,0,0,0,.08-.73.81.81,0,0,0-.16-.58.66.66,0,0,0-.49-.19.86.86,0,0,0-.63.25,1.8,1.8,0,0,0-.36.84,3.64,3.64,0,0,0-.09.73.87.87,0,0,0,.6.83l.95.45c1.25.58,1.68,1.15,1.68,2.16a7.69,7.69,0,0,1-.15,1.58,4.11,4.11,0,0,1-1.05,2.41,3.28,3.28,0,0,1-2.59.89,3,3,0,0,1-2.25-.75,2.23,2.23,0,0,1-.6-1.57,7.12,7.12,0,0,1,.12-1.19Z"/><path class="cls-1" d="M31.67,3.08h2l.89,5.72,3.22-5.72h2L37.35,14.92H35.12l1.24-6.24-2,4.05H33.17l-.38-4.05-1.25,6.24H29.31Z"/><path class="cls-1" d="M44.05,14.92l0-1.91h-2.6l-.76,1.91h-2.4L43.57,3.08h2.2l.53,11.84Zm0-8.55L42.27,11H44Z"/><path class="cls-1" d="M49.63,3.08h3.14c1.86,0,2.61,1,2.61,2.23a7.41,7.41,0,0,1-.15,1.38c-.41,2-.93,2.63-1.91,3.14L54,14.92H51.72l-.5-4.67h-.8l-.93,4.67H47.26Zm2.14,5.24c.85,0,1.08-.88,1.23-1.63a5.08,5.08,0,0,0,.1-.82c0-.48-.15-.8-.76-.8h-.88l-.65,3.25Z"/><path class="cls-1" d="M58.19,5.07H56.3l.4-2h6l-.4,2h-1.9l-2,9.85H56.23Z"/><path class="cls-2" d="M65.08,3.08h1.36L64.32,13.71h3L67,14.92H62.72Z"/><path class="cls-2" d="M70.75,3.08h1.37L69.76,14.92H68.39Z"/><path class="cls-2" d="M74.11,3.08H75.3l1.19,8.18,1.57-8.18h1.36L77.06,14.92H75.93L74.75,6.75l-1.63,8.17H71.75Z"/><path class="cls-2" d="M81.42,3.08h1.36L81.64,8.82l3.74-5.74h1.5L83.65,8l1.2,7H83.48l-1-5.45-1.46,2.14-.65,3.31H79.06Z"/><path class="cls-2" d="M88.22,3.08h1.45l-.35,1.79L87.64,6Z"/><path class="cls-2" d="M90.79,11.81a4.13,4.13,0,0,0-.1,1,.95.95,0,0,0,1,1.06,1.4,1.4,0,0,0,1-.4,2.52,2.52,0,0,0,.7-1.61,5.55,5.55,0,0,0,.13-1.18,1.14,1.14,0,0,0-.79-1.08l-1.09-.52a1.79,1.79,0,0,1-1.16-1.81,5.92,5.92,0,0,1,.13-1.18,4.33,4.33,0,0,1,1.07-2.37,2.61,2.61,0,0,1,1.94-.75,2.08,2.08,0,0,1,1.8.7A2,2,0,0,1,95.88,5a5.82,5.82,0,0,1-.14,1.2H94.4a5,5,0,0,0,.1-1,1.08,1.08,0,0,0-.19-.7.88.88,0,0,0-.73-.33,1.27,1.27,0,0,0-.91.38A2.6,2.6,0,0,0,92,6.06a4.41,4.41,0,0,0-.08.83,1,1,0,0,0,.68,1.05l1,.46c1,.5,1.4,1,1.4,1.9a8.69,8.69,0,0,1-.18,1.55,4,4,0,0,1-1.09,2.47,2.76,2.76,0,0,1-2.09.74,2.24,2.24,0,0,1-1.87-.69A1.9,1.9,0,0,1,89.31,13a5.79,5.79,0,0,1,.13-1.2Z"/></svg>