<svg id="Capa_1" data-name="Capa 1" xmlns="http://www.w3.org/2000/svg" viewBox="0 0 118 18"><defs><style>.cls-1{fill:#3b516c;}.cls-2{fill:#5fbfbd;}</style></defs><title>Smart Blamco</title><path class="cls-1" d="M5,12.23a4.09,4.09,0,0,0-.11.87,1,1,0,0,0,.29.76,1.43,1.43,0,0,0,.91.29,1.77,1.77,0,0,0,1.2-.36A2.19,2.19,0,0,0,8,12.48a5.19,5.19,0,0,0,.13-1.12c0-.59-.42-.92-1.22-1.22l-1.8-.7A2.59,2.59,0,0,1,3.13,7,7.32,7.32,0,0,1,3.36,5.2,5.06,5.06,0,0,1,4.92,2.43a5.39,5.39,0,0,1,3.7-1.11,5,5,0,0,1,3.46,1,2.5,2.5,0,0,1,.83,1.94,7,7,0,0,1-.16,1.52H9.27A4,4,0,0,0,9.4,4.8a.89.89,0,0,0-.26-.74,1.15,1.15,0,0,0-.76-.23,1.48,1.48,0,0,0-1,.31A2.13,2.13,0,0,0,6.82,5.2a3.86,3.86,0,0,0-.13.93c0,.48.31.82.94,1l1.48.57c2,.74,2.63,1.46,2.63,2.75a7.87,7.87,0,0,1-.24,2,5,5,0,0,1-1.63,3.07,5.9,5.9,0,0,1-4.06,1.11,5.21,5.21,0,0,1-3.51-.95,2.51,2.51,0,0,1-.94-2,7.12,7.12,0,0,1,.18-1.52Z"/><path class="cls-1" d="M16.29,1.48h3.07l1.4,7.27,5-7.27h3.07l-3.69,15H21.67L23.62,8.6l-3.2,5.13H18.63L18,8.6l-2,7.92H12.6Z"/><path class="cls-1" d="M35.64,16.52l0-2.43h-4l-1.2,2.43H26.66l8.22-15h3.43l.84,15Zm0-10.86-2.79,5.89h2.76Z"/><path class="cls-1" d="M44.35,1.48h4.91c2.91,0,4.08,1.21,4.08,2.83a7.53,7.53,0,0,1-.23,1.76c-.65,2.59-1.46,3.33-3,4l1,6.46H47.62l-.78-5.94H45.6l-1.46,5.94H40.65ZM47.7,8.13C49,8.13,49.39,7,49.63,6.07a5.79,5.79,0,0,0,.15-1c0-.61-.23-1-1.19-1H47.21l-1,4.11Z"/><path class="cls-1" d="M57.74,4h-3l.62-2.54h9.41L64.19,4h-3l-3.06,12.5H54.67Z"/><path class="cls-2" d="M68.5,1.48h2.14L67.31,15h4.63l-.37,1.55H64.81Z"/><path class="cls-2" d="M77.37,1.48H79.5l-3.69,15H73.68Z"/><path class="cls-2" d="M82.62,1.48h1.85l1.87,10.39L88.79,1.48h2.13l-3.69,15H85.46L83.61,6.15,81.06,16.52H78.93Z"/><path class="cls-2" d="M94,1.48h2.13L94.38,8.77l5.85-7.29h2.34l-5,6.21,1.88,8.83H97.26L95.78,9.59l-2.29,2.72-1,4.21H90.35Z"/><path class="cls-2" d="M104.68,1.48h2.26l-.55,2.28-2.62,1.46Z"/><path class="cls-2" d="M108.68,12.57a4.64,4.64,0,0,0-.16,1.22,1.17,1.17,0,0,0,.32.91,1.85,1.85,0,0,0,1.3.44,2.51,2.51,0,0,0,1.58-.5,3.09,3.09,0,0,0,1.1-2.05,6,6,0,0,0,.2-1.5c0-.59-.36-1-1.24-1.37l-1.69-.66c-1.31-.5-1.83-1.18-1.83-2.3a6.16,6.16,0,0,1,.21-1.5,5,5,0,0,1,1.67-3,4.59,4.59,0,0,1,3-.95A3.67,3.67,0,0,1,116,2.2a2.25,2.25,0,0,1,.65,1.69,5.89,5.89,0,0,1-.21,1.52h-2.11a5.09,5.09,0,0,0,.16-1.24,1.23,1.23,0,0,0-.29-.89,1.51,1.51,0,0,0-1.14-.42,2.32,2.32,0,0,0-1.43.48,3,3,0,0,0-1,1.92,4.66,4.66,0,0,0-.13,1.06c0,.74.42,1.08,1.07,1.33l1.53.59c1.64.63,2.18,1.31,2.18,2.41a8.46,8.46,0,0,1-.28,2c-.42,1.75-.86,2.51-1.69,3.15a5.07,5.07,0,0,1-3.28.92,3.94,3.94,0,0,1-2.91-.86,2.16,2.16,0,0,1-.7-1.73,6.22,6.22,0,0,1,.2-1.52Z"/></svg>