<?xml version="1.0" standalone="no"?>
<!DOCTYPE svg PUBLIC "-//W3C//DTD SVG 20010904//EN"
 "http://www.w3.org/TR/2001/REC-SVG-20010904/DTD/svg10.dtd">
<svg version="1.0" xmlns="http://www.w3.org/2000/svg"
 width="640.000000pt" height="640.000000pt" viewBox="0 0 640.000000 640.000000"
 preserveAspectRatio="xMidYMid meet">

<g transform="translate(0.000000,640.000000) scale(0.100000,-0.100000)"
fill="#000000" stroke="none">
<path d="M4050 5754 c-78 -34 -120 -101 -120 -192 l0 -60 -95 -47 c-121 -60
-246 -138 -362 -227 l-93 -70 -42 11 c-24 6 -77 21 -118 32 -98 26 -296 36
-426 20 -393 -48 -743 -241 -993 -546 -146 -179 -251 -397 -306 -637 -58 -256
-28 -607 74 -863 178 -446 562 -785 1022 -904 249 -64 541 -61 787 8 214 60
431 179 585 320 72 66 175 174 197 205 125 185 192 313 238 456 58 184 67 245
67 483 0 119 1 217 1 217 1 0 91 23 200 51 l198 51 18 -24 c9 -12 18 -26 18
-30 0 -3 21 -20 47 -37 39 -26 56 -31 105 -31 140 0 227 106 198 240 -15 68
-76 133 -142 151 -96 26 -211 -37 -239 -130 -10 -35 -18 -42 -48 -50 -20 -5
-101 -26 -181 -46 -80 -20 -158 -40 -175 -45 -288 -84 -451 -143 -672 -244
-288 -130 -550 -284 -864 -508 -143 -103 -401 -330 -546 -483 l-112 -116 -48
37 c-59 45 -154 136 -195 187 l-30 37 33 83 c63 160 206 455 313 647 60 107
115 204 123 215 7 11 59 90 115 175 194 297 358 503 581 728 271 275 526 466
768 576 l55 25 49 -25 c141 -72 303 33 291 187 -10 140 -150 228 -276 173z
m136 -99 c30 -21 47 -68 40 -109 -9 -47 -47 -76 -100 -76 -59 0 -96 39 -96
100 0 61 37 100 95 100 22 0 50 -7 61 -15z m-1312 -1003 c-17 -12 -134 -158
-226 -282 -94 -128 -187 -268 -268 -405 -29 -49 -63 -106 -75 -125 -25 -39
-97 -174 -174 -324 -50 -98 -51 -99 -61 -70 -48 124 -52 389 -10 534 93 322
352 576 670 659 74 20 165 28 144 13z m2259 -452 c37 -42 37 -92 -2 -130 -40
-40 -76 -47 -119 -24 -69 37 -76 126 -14 175 38 30 97 21 135 -21z m-1227
-532 c-23 -335 -224 -637 -521 -782 -136 -67 -217 -87 -378 -93 -86 -4 -160
-1 -200 6 -79 15 -215 59 -223 73 -4 6 11 26 32 46 336 308 774 603 1164 784
69 32 127 58 129 58 2 0 1 -42 -3 -92z"/>
<path d="M1363 1849 c-73 -22 -125 -107 -138 -224 -8 -74 15 -111 91 -149 88
-44 94 -51 94 -105 0 -62 -30 -111 -68 -111 -37 0 -52 17 -52 57 l0 33 -65 0
-65 0 0 -58 c0 -52 4 -63 34 -98 l34 -39 99 0 c91 0 101 2 130 25 43 35 54 55
74 135 38 143 21 186 -93 245 l-78 41 0 47 c0 63 22 94 63 90 29 -3 32 -7 35
-40 l3 -38 65 0 64 0 0 44 c0 97 -42 143 -137 151 -32 2 -73 0 -90 -6z"/>
<path d="M1720 1843 c0 -5 -29 -153 -65 -331 -36 -177 -65 -331 -65 -342 0
-18 7 -20 59 -20 l59 0 11 48 c6 26 22 103 36 172 14 68 27 126 29 128 2 1 6
-22 10 -53 3 -30 9 -80 12 -110 6 -54 7 -55 38 -55 30 0 34 5 86 111 30 61 56
104 58 96 2 -8 -11 -83 -27 -166 -17 -83 -31 -156 -31 -161 0 -12 117 -14 124
-2 3 5 21 91 40 193 20 101 49 251 66 334 16 82 30 153 30 157 0 4 -24 8 -54
8 l-54 0 -49 -87 c-28 -49 -70 -123 -94 -166 -26 -47 -46 -72 -50 -65 -4 7
-17 82 -30 166 l-23 152 -58 0 c-32 0 -58 -3 -58 -7z"/>
<path d="M2405 1808 c-9 -24 -77 -179 -151 -344 -74 -166 -134 -305 -134 -308
0 -4 30 -6 67 -4 l67 3 20 50 c11 28 21 52 22 53 1 2 38 4 81 4 l78 0 0 -53 0
-54 63 -3 62 -3 0 38 c0 75 -21 559 -26 611 l-5 52 -64 0 -63 0 -17 -42z m45
-298 l0 -130 -50 0 c-27 0 -50 4 -50 9 0 11 93 251 97 251 2 0 3 -58 3 -130z"/>
<path d="M2716 1516 c-36 -184 -66 -341 -66 -350 0 -13 11 -16 59 -16 70 0 62
-12 95 157 21 111 24 118 48 121 25 3 25 3 37 -120 17 -170 11 -158 88 -158
63 0 65 1 59 23 -3 12 -12 80 -21 149 l-16 128 38 34 c51 46 77 118 77 217 1
63 -3 81 -19 99 -35 40 -76 50 -198 50 l-114 0 -67 -334z m269 194 c15 -46
-18 -151 -50 -164 -23 -8 -85 -8 -85 2 0 4 9 44 19 89 10 45 16 85 13 88 -3 3
18 5 46 5 42 0 52 -3 57 -20z"/>
<path d="M3196 1820 c-3 -16 -9 -43 -12 -60 l-6 -30 56 0 c53 0 56 -1 51 -22
-16 -74 -105 -531 -105 -544 0 -12 12 -14 61 -12 l62 3 53 264 c29 146 55 275
59 288 5 20 11 23 55 23 56 0 65 10 76 79 l7 41 -176 0 -175 0 -6 -30z"/>
<path d="M2037 1053 c-11 -11 -8 -173 3 -173 6 0 10 16 10 35 0 34 1 35 38 35
46 0 62 14 62 55 0 24 -6 35 -25 43 -28 13 -78 16 -88 5z m91 -47 c4 -33 -10
-46 -50 -46 -26 0 -28 3 -28 41 l0 40 38 -3 c33 -3 37 -6 40 -32z"/>
<path d="M3461 1047 c-13 -16 -15 -33 -13 -109 2 -74 22 -76 22 -3 0 42 3 55
15 55 8 0 15 5 15 10 0 6 -7 10 -15 10 -8 0 -15 7 -15 15 0 8 7 15 15 15 8 0
15 5 15 10 0 14 -26 12 -39 -3z"/>
<path d="M3330 1024 c0 -21 -4 -24 -20 -19 -35 11 -60 -11 -60 -55 0 -62 7
-70 56 -70 l44 0 0 85 c0 50 -4 85 -10 85 -5 0 -10 -12 -10 -26z m-2 -81 c3
-34 0 -42 -17 -48 -31 -9 -41 2 -41 44 0 44 6 53 35 49 16 -2 21 -12 23 -45z"/>
<path d="M4038 1023 c-2 -10 -2 -45 1 -78 5 -46 10 -61 24 -63 9 -2 17 1 17 7
0 6 -4 11 -10 11 -15 0 -12 87 3 94 10 5 10 7 0 12 -7 3 -13 12 -13 20 0 20
-17 17 -22 -3z"/>
<path d="M2186 994 c-19 -18 -21 -85 -4 -102 15 -15 58 -15 78 -1 11 8 8 9
-13 4 -28 -6 -57 8 -57 26 0 5 18 9 40 9 36 0 40 3 40 24 0 29 -24 56 -50 56
-10 0 -26 -7 -34 -16z m62 -26 c3 -14 -3 -18 -27 -18 -29 0 -41 17 -24 34 13
13 48 1 51 -16z"/>
<path d="M2312 940 c1 -65 1 -65 7 -16 6 51 26 74 55 63 12 -5 16 -19 16 -57
0 -27 5 -50 10 -50 6 0 10 22 10 49 0 61 -18 82 -66 78 l-34 -2 2 -65z"/>
<path d="M2455 994 c-24 -24 -15 -48 20 -52 41 -5 59 -20 44 -39 -8 -9 -22
-11 -47 -7 -25 5 -33 4 -28 -5 8 -13 65 -15 84 -2 8 4 12 19 10 32 -2 19 -11
25 -38 29 -47 7 -49 35 -2 35 34 0 42 9 16 19 -25 10 -42 7 -59 -10z"/>
<path d="M2593 1003 c-24 -9 -13 -21 20 -19 46 2 44 -27 -3 -34 -31 -4 -35 -8
-35 -35 0 -29 2 -30 48 -33 l47 -3 0 50 c0 67 -29 94 -77 74z m57 -82 c0 -21
-22 -33 -45 -25 -8 4 -15 15 -15 25 0 14 7 19 30 19 23 0 30 -5 30 -19z"/>
<path d="M2710 943 c0 -36 4 -63 10 -63 6 0 10 23 10 50 0 87 59 78 61 -9 l2
-46 6 45 c8 52 17 70 36 70 19 0 28 -18 36 -70 7 -43 7 -42 5 14 -1 68 -20 91
-57 68 -14 -9 -24 -10 -33 -3 -7 6 -27 9 -44 8 l-32 -2 0 -62z"/>
<path d="M2936 994 c-19 -18 -21 -85 -4 -102 7 -7 24 -12 38 -12 37 0 50 18
50 67 0 32 -5 45 -19 53 -27 14 -47 13 -65 -6z m62 -21 c4 -10 7 -24 6 -30 -1
-7 -2 -19 -3 -27 -1 -17 -26 -27 -46 -20 -15 6 -22 74 -8 87 13 13 42 7 51
-10z"/>
<path d="M3065 994 c-9 -9 -14 -23 -11 -31 3 -8 6 -17 6 -19 0 -2 9 -4 21 -4
11 0 29 -5 40 -11 17 -9 18 -13 8 -25 -9 -11 -23 -14 -48 -9 -27 5 -33 4 -25
-5 6 -6 29 -10 50 -8 36 3 39 5 39 33 0 27 -4 31 -35 35 -45 6 -48 34 -5 37
47 2 51 4 30 13 -31 13 -52 11 -70 -6z"/>
<path d="M3542 994 c-26 -18 -30 -74 -6 -98 18 -19 70 -21 80 -5 5 8 -1 10
-20 7 -28 -6 -66 15 -53 28 4 5 23 7 42 6 33 -2 35 -1 35 27 0 20 -7 34 -19
41 -26 13 -33 13 -59 -6z m56 -16 c20 -20 14 -28 -23 -28 -22 0 -35 5 -35 13
0 28 36 37 58 15z"/>
<path d="M3683 1003 c-21 -4 -23 -10 -23 -64 0 -73 18 -79 22 -6 3 49 5 52 31
55 15 2 25 8 22 13 -6 9 -13 10 -52 2z"/>
<path d="M3782 994 c-26 -18 -31 -84 -8 -103 19 -16 68 -10 74 7 3 11 0 12
-15 3 -15 -8 -25 -7 -39 4 -25 18 -13 29 31 27 31 -1 35 1 35 25 0 25 -23 52
-45 53 -6 0 -21 -7 -33 -16z m56 -26 c3 -14 -3 -18 -27 -18 -29 0 -41 17 -24
34 13 13 48 1 51 -16z"/>
<path d="M3923 1003 c-21 -4 -23 -10 -22 -66 l2 -62 6 47 c8 54 20 72 47 66
15 -2 20 -14 22 -56 2 -28 8 -52 14 -52 16 0 4 110 -13 121 -15 9 -19 9 -56 2z"/>
<path d="M4124 985 c-19 -30 -12 -90 12 -99 25 -10 62 -7 70 6 5 8 -2 9 -23 5
-28 -5 -53 6 -53 24 0 5 19 9 43 11 38 3 42 5 39 28 -5 51 -61 66 -88 25z m66
1 c0 -2 3 -11 6 -20 5 -13 -1 -16 -30 -16 -38 0 -44 8 -24 28 11 11 48 17 48
8z"/>
<path d="M3390 940 c0 -33 4 -60 10 -60 6 0 10 27 10 60 0 33 -4 60 -10 60 -6
0 -10 -27 -10 -60z"/>
<path d="M4245 890 c-3 -5 -1 -10 4 -10 6 0 11 5 11 10 0 6 -2 10 -4 10 -3 0
-8 -4 -11 -10z"/>
<path d="M4300 890 c0 -5 5 -10 10 -10 6 0 10 5 10 10 0 6 -4 10 -10 10 -5 0
-10 -4 -10 -10z"/>
<path d="M4360 890 c0 -5 5 -10 10 -10 6 0 10 5 10 10 0 6 -4 10 -10 10 -5 0
-10 -4 -10 -10z"/>
</g>
</svg>
