<?xml version="1.0" standalone="no"?>
<!DOCTYPE svg PUBLIC "-//W3C//DTD SVG 20010904//EN"
 "http://www.w3.org/TR/2001/REC-SVG-20010904/DTD/svg10.dtd">
<svg version="1.0" xmlns="http://www.w3.org/2000/svg"
 width="484.000000pt" height="100.000000pt" viewBox="0 0 484.000000 100.000000"
 preserveAspectRatio="xMidYMid meet">

<g transform="translate(0.000000,100.000000) scale(0.100000,-0.100000)"
fill="#000000" stroke="none">
<path d="M1300 675 c0 -278 -2 -324 -14 -319 -12 5 -15 41 -18 188 -3 181 -3
183 -30 218 -39 51 -89 72 -185 76 -172 8 -253 -54 -265 -203 -3 -27 0 -30 30
-33 l33 -3 -24 -19 c-13 -11 -31 -34 -38 -52 -13 -31 -14 -28 -19 78 -5 99 -9
116 -32 152 -39 57 -101 85 -181 80 -43 -2 -72 -10 -93 -25 l-29 -21 -30 21
c-24 18 -42 22 -105 21 -41 -1 -126 -2 -188 -2 l-112 -1 0 -275 0 -276 100 0
100 0 0 185 c0 172 1 185 19 195 27 14 37 13 55 -6 13 -13 16 -45 16 -195 l0
-179 100 0 100 0 0 185 0 185 25 12 c19 8 28 8 40 -2 12 -10 15 -43 15 -196
l0 -184 100 0 100 0 0 51 0 52 23 -34 c30 -44 76 -75 126 -83 41 -6 118 6 152
25 13 6 19 6 19 -1 0 -6 70 -10 205 -10 l205 0 0 91 c0 53 4 88 9 84 5 -3 30
-43 56 -90 l46 -85 190 0 189 0 0 163 c0 187 4 197 76 197 l40 0 0 -87 c1
-106 24 -164 90 -222 129 -114 370 -76 442 70 l21 41 14 -33 c33 -80 104 -130
202 -143 103 -14 203 29 254 110 l29 44 12 -30 c17 -40 78 -94 126 -111 22 -7
71 -13 111 -13 122 2 210 59 247 160 15 39 15 39 15 -53 l1 -93 100 0 100 0 0
360 0 360 -100 0 -100 0 -1 -207 c-1 -115 -4 -197 -6 -183 -15 92 -57 160
-121 197 -60 35 -180 44 -248 18 -55 -21 -99 -57 -121 -99 -15 -28 -17 -29
-27 -12 -49 84 -125 126 -229 126 -110 0 -189 -44 -233 -132 l-26 -52 -15 35
c-36 87 -121 140 -234 147 -102 6 -167 -15 -226 -74 l-43 -43 0 59 0 60 -50 0
c-28 0 -64 -7 -80 -15 -17 -9 -30 -11 -30 -5 0 6 -66 10 -187 9 l-188 0 -50
-60 -50 -59 -3 145 -3 145 -99 0 -100 0 0 -325z m182 145 l3 -161 64 76 64 75
174 0 c168 0 173 -1 173 -21 l0 -20 26 20 c33 26 83 40 118 34 24 -5 26 -9 26
-62 0 -93 -5 -101 -60 -101 -32 0 -56 -6 -71 -19 -23 -19 -24 -25 -27 -185
l-3 -166 -172 2 -171 3 -56 97 c-51 91 -56 96 -72 81 -15 -13 -18 -33 -18
-100 l0 -83 -80 0 -80 0 0 345 0 345 80 0 80 0 2 -160z m2368 -185 l0 -345
-80 0 -80 0 0 345 0 345 80 0 80 0 0 -345z m-3464 167 c11 -6 27 -18 34 -27
12 -14 16 -13 39 9 48 46 163 51 218 10 66 -50 68 -55 71 -290 l3 -214 -80 0
-81 0 0 178 c0 200 -4 216 -60 214 -18 0 -38 -6 -44 -12 -7 -7 -13 -79 -16
-193 l-5 -182 -80 0 -80 0 -3 181 c-3 197 -5 207 -59 207 -16 0 -34 -10 -45
-23 -16 -20 -18 -43 -18 -196 l0 -174 -80 0 -80 0 0 260 0 260 75 0 c60 0 75
-3 75 -15 0 -19 9 -19 30 0 35 32 133 35 186 7z m760 2 c22 -8 54 -28 70 -45
l29 -30 3 -184 c3 -145 6 -186 18 -196 8 -6 14 -22 14 -35 0 -23 -2 -24 -84
-24 -76 0 -84 2 -89 20 -5 20 -5 20 -41 0 -84 -50 -212 -29 -256 42 -29 47
-28 134 3 178 32 49 75 70 173 86 96 15 115 25 98 52 -26 41 -124 18 -124 -30
0 -16 -9 -18 -81 -18 l-81 0 7 38 c18 97 70 147 171 160 69 10 113 6 170 -14z
m1392 -21 c71 -44 104 -105 110 -203 6 -109 -10 -162 -67 -221 -135 -139 -392
-86 -445 92 -53 178 38 348 197 368 77 10 153 -4 205 -36z m494 16 c60 -31
109 -97 107 -146 0 -23 -3 -19 -15 19 -40 131 -240 181 -353 90 -77 -63 -110
-192 -77 -305 31 -105 100 -156 214 -157 101 0 167 37 203 115 32 69 28 75
-46 75 -48 0 -65 -4 -65 -14 0 -24 -39 -64 -69 -71 -39 -8 -85 16 -101 54 -17
43 -15 152 4 190 19 36 44 51 86 51 33 0 80 -38 80 -65 0 -12 14 -15 71 -15
44 0 68 -4 64 -10 -3 -5 -37 -10 -75 -10 l-68 0 -12 34 c-12 37 -26 46 -71 46
-40 0 -66 -30 -74 -85 -15 -95 18 -175 72 -175 38 0 60 17 73 55 l12 36 71 -3
72 -3 3 -37 c8 -95 -104 -188 -225 -188 -71 0 -126 22 -173 69 -55 55 -70 100
-70 207 1 149 72 244 199 263 52 8 128 -2 163 -20z m475 4 c50 -17 105 -77
121 -130 18 -60 25 -120 18 -148 l-6 -25 -160 0 c-153 0 -160 -1 -160 -20 0
-59 109 -85 149 -35 18 24 24 26 99 23 l80 -3 -13 -39 c-27 -78 -104 -132
-202 -142 -112 -12 -200 30 -248 117 -28 50 -30 62 -30 154 0 108 11 141 64
198 65 71 177 90 288 50z m-2439 -145 c-6 -17 -88 -29 -88 -13 0 19 12 25 53
25 26 0 37 -4 35 -12z m1882 -8 c11 -11 20 -29 20 -40 0 -18 7 -20 80 -20 l80
0 0 -35 0 -35 -80 0 c-70 0 -80 -2 -80 -18 0 -35 -30 -63 -63 -60 -44 4 -59
36 -55 122 3 57 8 71 27 87 30 24 46 24 71 -1z m717 -152 c-3 -8 -6 -5 -6 6
-1 11 2 17 5 13 3 -3 4 -12 1 -19z m-209 -30 c-7 -46 -107 -42 -116 5 -3 15 5
17 58 17 57 0 61 -1 58 -22z"/>
<path d="M1337 963 c-4 -3 -7 -152 -7 -330 l0 -323 65 0 65 0 0 73 c0 65 3 76
28 106 l27 33 60 -106 60 -106 77 0 77 0 -90 151 -91 150 88 92 89 92 -65 3
c-35 2 -74 0 -85 -3 -11 -3 -54 -45 -95 -93 l-75 -86 -3 177 -2 177 -59 0
c-32 0 -61 -3 -64 -7z"/>
<path d="M2022 793 c-18 -8 -40 -29 -50 -45 l-17 -30 -5 39 -5 38 -60 0 -60 0
-3 -242 -2 -243 65 0 65 0 0 128 c0 193 17 231 110 240 l50 5 0 63 c0 63 0 64
-27 64 -16 0 -43 -8 -61 -17z"/>
<path d="M1716 701 l-90 -90 90 -147 89 -148 3 123 c1 67 1 174 0 237 l-3 114
-89 -89z m74 -138 l0 -188 -69 115 -69 114 66 73 c37 40 68 73 69 73 2 0 3
-84 3 -187z"/>
<path d="M3700 640 l0 -330 65 0 65 0 0 330 0 330 -65 0 -65 0 0 -330z"/>
<path d="M234 796 c-17 -8 -40 -26 -52 -40 l-21 -27 -3 33 -3 33 -60 0 -60 0
-3 -242 -2 -243 65 0 65 0 0 148 c0 158 10 216 40 232 31 16 78 12 100 -10 18
-18 20 -33 20 -195 l0 -175 64 0 65 0 3 176 c3 171 4 176 27 195 31 26 83 25
107 -2 17 -19 19 -41 22 -195 l4 -174 65 0 65 0 -4 193 c-2 162 -6 197 -21
225 -48 88 -183 108 -252 39 l-32 -32 -18 24 c-35 47 -119 64 -181 37z"/>
<path d="M951 801 c-62 -16 -116 -70 -127 -128 l-6 -33 60 0 c56 0 62 2 74 27
17 35 59 49 109 34 79 -24 54 -84 -39 -96 -107 -14 -147 -28 -179 -61 -81 -86
-33 -229 81 -241 60 -7 107 3 149 31 37 26 47 24 47 -6 0 -16 9 -18 70 -18 68
0 80 5 61 26 -6 5 -11 91 -13 191 -3 201 -8 216 -76 256 -36 21 -158 31 -211
18z m159 -301 c0 -55 -40 -99 -96 -107 -34 -4 -46 -1 -64 17 -22 22 -22 62 0
84 8 8 123 42 153 45 4 1 7 -17 7 -39z"/>
<path d="M1032 505 c-66 -15 -87 -34 -78 -69 5 -22 12 -26 46 -26 53 0 93 34
88 76 l-3 31 -53 -12z m38 -36 c0 -22 -61 -54 -86 -45 -25 9 -16 44 14 54 47
18 72 14 72 -9z"/>
<path d="M2310 801 c-113 -35 -170 -118 -170 -251 0 -152 77 -237 222 -248
137 -10 230 48 264 164 41 143 -27 293 -150 329 -53 16 -125 18 -166 6z m152
-130 c30 -27 33 -34 36 -103 4 -81 -11 -128 -47 -148 -30 -15 -104 -12 -130 6
-72 51 -66 224 9 261 44 22 96 16 132 -16z"/>
<path d="M2320 660 c-26 -26 -33 -59 -28 -130 5 -68 24 -97 74 -106 65 -12
109 22 120 92 15 102 -23 164 -101 164 -31 0 -51 -6 -65 -20z m104 -1 c34 -16
49 -59 44 -126 -4 -43 -10 -61 -28 -75 -31 -25 -82 -23 -107 5 -45 47 -34 168
17 194 31 16 43 16 74 2z"/>
<path d="M3316 798 c-51 -14 -121 -84 -135 -134 -16 -57 -13 -175 4 -225 32
-89 107 -138 211 -139 98 0 177 37 209 100 27 52 21 60 -41 60 -47 0 -60 -4
-80 -25 -46 -50 -132 -46 -164 8 -11 18 -20 42 -20 55 0 22 0 22 166 22 l167
0 -5 70 c-10 132 -85 209 -211 216 -34 2 -80 -2 -101 -8z m149 -123 c14 -13
25 -36 25 -50 l0 -25 -96 0 -96 0 7 28 c11 47 43 72 92 72 33 0 50 -6 68 -25z"/>
<path d="M3363 680 c-19 -8 -43 -38 -43 -54 0 -3 36 -6 80 -6 l81 0 -15 29
c-20 37 -58 49 -103 31z m77 -25 c11 -13 5 -15 -40 -15 -45 0 -51 2 -40 15 7
8 25 15 40 15 15 0 33 -7 40 -15z"/>
<path d="M4293 985 c-71 -31 -86 -152 -24 -207 17 -15 41 -28 54 -28 54 -1 46
-16 -59 -120 -160 -159 -168 -187 -80 -278 51 -53 58 -57 100 -57 45 0 47 2
176 130 l130 130 0 -44 c0 -36 6 -49 34 -77 31 -31 40 -34 90 -34 47 0 61 4
88 29 l33 29 3 226 c4 328 16 316 -300 316 -159 -1 -221 -4 -245 -15z m498
-34 l29 -29 0 -227 0 -226 -25 -24 c-20 -21 -34 -25 -80 -25 -46 0 -60 4 -80
25 -21 20 -25 34 -25 85 0 33 -4 60 -9 60 -5 0 -64 -58 -131 -129 -68 -71
-135 -135 -151 -141 -42 -18 -83 -4 -128 45 -32 35 -41 52 -41 80 0 32 14 50
131 175 l131 140 -41 0 c-48 0 -96 21 -111 49 -5 11 -10 41 -10 66 0 38 5 52
29 76 l29 29 227 0 227 0 29 -29z"/>
<path d="M4290 940 c-32 -32 -31 -102 2 -137 17 -18 34 -23 91 -25 l71 -3
-137 -141 c-75 -78 -141 -152 -146 -165 -20 -53 50 -139 112 -139 28 0 52 20
184 152 l153 153 0 -67 c0 -37 5 -78 11 -91 23 -50 100 -62 146 -23 l28 24 0
220 c0 202 -2 222 -19 241 -18 20 -28 21 -248 21 -215 0 -229 -1 -248 -20z"/>
<path d="M1450 176 c0 -9 12 -16 28 -18 27 -3 27 -4 30 -81 2 -68 5 -78 20
-75 14 3 18 17 20 81 3 74 4 77 27 77 16 0 25 6 25 15 0 12 -15 15 -75 15 -58
0 -75 -3 -75 -14z"/>
<path d="M1622 98 l3 -93 68 -3 c62 -3 67 -1 67 18 0 17 -6 20 -50 20 -47 0
-50 2 -50 25 0 23 4 25 45 25 33 0 45 4 45 15 0 11 -12 15 -45 15 -38 0 -45 3
-45 20 0 17 7 20 50 20 38 0 50 4 50 15 0 12 -14 15 -70 15 l-71 0 3 -92z"/>
<path d="M1790 95 l0 -95 65 0 c58 0 65 2 65 20 0 17 -7 20 -45 20 l-45 0 0
75 c0 68 -2 75 -20 75 -19 0 -20 -7 -20 -95z"/>
<path d="M1942 98 l3 -93 68 -3 c62 -3 67 -1 67 18 0 17 -6 20 -50 20 -47 0
-50 2 -50 25 0 23 4 25 45 25 33 0 45 4 45 15 0 11 -12 15 -45 15 -38 0 -45 3
-45 20 0 17 7 20 50 20 38 0 50 4 50 15 0 12 -14 15 -70 15 l-71 0 3 -92z"/>
<path d="M2126 171 c-37 -41 -28 -138 15 -161 43 -23 94 -9 115 31 13 27 13
29 -4 29 -9 0 -25 -9 -35 -20 -21 -25 -32 -25 -57 0 -53 53 6 144 61 94 10 -9
25 -14 34 -12 15 3 14 6 -5 31 -17 22 -29 27 -64 27 -29 0 -48 -6 -60 -19z"/>
<path d="M2318 180 c-23 -14 -41 -74 -33 -110 12 -57 93 -90 136 -57 45 35 53
114 14 152 -26 27 -84 34 -117 15z m92 -39 c23 -44 1 -111 -37 -111 -21 0 -53
38 -53 63 0 55 66 91 90 48z"/>
<path d="M2482 98 c3 -79 6 -93 21 -96 15 -3 17 6 18 70 l1 73 17 -70 c13 -57
20 -70 36 -70 16 0 23 13 36 70 l17 70 1 -73 c1 -64 3 -73 19 -70 14 3 17 17
20 96 l3 92 -30 0 c-27 0 -31 -4 -41 -42 -25 -98 -26 -98 -42 -28 -14 62 -16
65 -47 68 l-32 3 3 -93z"/>
<path d="M2700 111 c0 -71 2 -82 22 -95 23 -17 75 -21 94 -8 23 15 34 53 34
116 0 59 -2 66 -20 66 -18 0 -20 -7 -20 -64 0 -45 -5 -69 -16 -80 -34 -35 -52
-13 -56 69 -2 57 -6 70 -20 73 -16 3 -18 -6 -18 -77z"/>
<path d="M2880 95 c0 -76 3 -95 15 -95 11 0 15 16 17 68 l3 67 38 -68 c27 -48
44 -67 55 -65 14 3 17 19 20 96 3 87 2 92 -18 92 -18 0 -20 -6 -20 -62 l0 -63
-36 63 c-24 43 -41 62 -55 62 -17 0 -19 -8 -19 -95z"/>
<path d="M3060 94 c0 -86 2 -95 18 -92 14 3 17 17 20 96 3 87 2 92 -18 92 -19
0 -20 -6 -20 -96z"/>
<path d="M3140 163 c-29 -37 -24 -118 10 -145 44 -35 130 -11 130 37 0 22 -33
18 -48 -5 -36 -58 -95 28 -62 91 13 23 58 26 66 4 8 -19 44 -20 44 -2 0 26
-36 47 -78 47 -32 0 -45 -6 -62 -27z"/>
<path d="M3355 173 c-15 -37 -55 -157 -55 -165 0 -16 30 -8 40 12 15 28 76 28
85 0 4 -11 15 -20 27 -20 12 0 18 5 16 13 -3 6 -17 49 -33 95 -24 70 -32 82
-51 82 -12 0 -25 -8 -29 -17z m44 -85 c1 -12 -6 -18 -19 -18 -24 0 -23 -2 -8
40 10 30 12 32 19 14 4 -10 8 -27 8 -36z"/>
<path d="M3518 180 c-23 -14 -41 -74 -33 -110 8 -37 49 -70 87 -70 28 0 78 38
78 60 0 17 -35 11 -53 -10 -21 -25 -32 -25 -57 0 -24 24 -26 57 -4 88 18 25
46 29 64 7 7 -8 21 -15 32 -15 16 0 17 3 7 23 -7 12 -17 25 -23 29 -16 11 -78
9 -98 -2z"/>
<path d="M3670 94 c0 -86 2 -95 18 -92 14 3 17 17 20 96 3 87 2 92 -18 92 -19
0 -20 -6 -20 -96z"/>
<path d="M3772 183 c-19 -7 -42 -58 -42 -93 0 -39 47 -90 84 -90 65 0 104 49
93 118 -4 20 -16 45 -28 55 -20 16 -78 22 -107 10z m82 -39 c24 -24 20 -80 -6
-98 -29 -20 -34 -20 -58 4 -24 24 -26 67 -3 92 20 22 46 23 67 2z"/>
<path d="M3932 98 c3 -79 6 -93 21 -96 15 -3 17 5 17 65 l0 68 38 -65 c26 -45
44 -65 58 -65 17 0 19 9 22 93 3 86 1 92 -17 92 -18 0 -20 -8 -23 -61 l-3 -61
-35 61 c-27 46 -40 61 -58 61 -22 0 -23 -2 -20 -92z"/>
<path d="M4120 95 l0 -96 67 3 c55 2 68 6 71 20 3 15 -4 18 -47 18 -48 0 -51
2 -51 25 0 23 4 25 45 25 33 0 45 4 45 15 0 11 -12 15 -45 15 -38 0 -45 3 -45
20 0 17 7 20 51 20 36 0 49 4 47 13 -3 7 -29 13 -71 15 l-67 3 0 -96z"/>
<path d="M4296 174 c-19 -19 -21 -58 -3 -72 6 -5 31 -15 55 -21 47 -13 56 -37
17 -47 -17 -4 -32 -1 -44 10 -22 20 -41 21 -41 2 0 -43 95 -61 130 -26 39 39
24 69 -46 94 -45 15 -59 46 -21 46 14 0 30 -7 37 -15 16 -19 40 -19 40 -1 0
42 -91 64 -124 30z"/>
</g>
</svg>
